Coordinates
version=1
nRows=65
nColumns=12
inDegrees=yes

Units are S.I. units (second, meters, Newtons, ...)
Angles are in degrees

endheader
time	SC_y	SC_z	SC_x	AC_y	AC_z	AC_x	GH_y	GH_z	GH_yy	EL_x	PS_y
       0.0               -21.9          10.56          20.06           63.9         -13.59          1.566         -86.71          84.65         -60.15          136.6          90.89
   0.02013              -21.91          10.56          20.06           63.9         -13.59          1.566         -86.68          84.64         -60.16          136.6          90.88
   0.04025              -21.91          10.56          20.06           63.9         -13.58          1.567         -86.64          84.63         -60.17          136.6          90.88
   0.06038              -21.92          10.56          20.05           63.9         -13.58          1.567          -86.6          84.62         -60.18          136.6          90.87
   0.08051              -21.92          10.56          20.05           63.9         -13.58          1.567         -86.56          84.61          -60.2          136.6          90.87
    0.1006              -21.93          10.55          20.05           63.9         -13.57          1.568         -86.52          84.59         -60.21          136.5          90.86
    0.1208              -21.93          10.55          20.05           63.9         -13.57          1.568         -86.47          84.58         -60.22          136.5          90.86
    0.1409              -21.94          10.55          20.05          63.91         -13.57          1.569         -86.42          84.56         -60.23          136.5          90.85
     0.161              -21.95          10.54          20.04          63.91         -13.56          1.569         -86.37          84.55         -60.25          136.5          90.85
    0.1811              -21.96          10.54          20.04          63.91         -13.56           1.57         -86.31          84.53         -60.27          136.5          90.84
    0.2013              -21.96          10.54          20.04          63.91         -13.55          1.571         -86.25          84.51         -60.28          136.5          90.83
    0.2214              -21.97          10.53          20.04          63.91         -13.55          1.571         -86.18          84.49          -60.3          136.5          90.82
    0.2415              -21.98          10.53          20.03          63.91         -13.54          1.572         -86.11          84.47         -60.32          136.5          90.82
    0.2617              -21.99          10.53          20.03          63.91         -13.54          1.573         -86.03          84.45         -60.34          136.5          90.81
    0.2818               -22.0          10.52          20.03          63.92         -13.53          1.573         -85.95          84.43         -60.37          136.4           90.8
    0.3019              -22.02          10.52          20.02          63.92         -13.53          1.574         -85.86           84.4         -60.39          136.4          90.79
     0.322              -22.03          10.51          20.02          63.92         -13.52          1.575         -85.76          84.37         -60.42          136.4          90.78
    0.3422              -22.05           10.5          20.01          63.92         -13.51          1.576         -85.65          84.34         -60.45          136.4          90.76
    0.3623              -22.06           10.5          20.01          63.92          -13.5          1.578         -85.54           84.3         -60.48          136.4          90.75
    0.3824              -22.08          10.49           20.0          63.93         -13.49          1.579         -85.41          84.27         -60.52          136.3          90.73
    0.4025               -22.1          10.48          19.99          63.93         -13.48           1.58         -85.27          84.23         -60.56          136.3          90.72
    0.4227              -22.12          10.47          19.99          63.93         -13.47          1.582         -85.11          84.18          -60.6          136.3           90.7
    0.4428              -22.14          10.46          19.98          63.94         -13.46          1.584         -84.94          84.13         -60.65          136.2          90.68
    0.4629              -22.17          10.45          19.97          63.94         -13.44          1.585         -84.75          84.07          -60.7          136.2          90.66
    0.4831               -22.2          10.44          19.96          63.94         -13.43          1.588         -84.54          84.01         -60.76          136.2          90.63
    0.5032              -22.23          10.42          19.95          63.95         -13.41           1.59          -84.3          83.94         -60.82          136.1          90.61
    0.5233              -22.27          10.41          19.94          63.95         -13.39          1.592         -84.04          83.86          -60.9          136.1          90.57
    0.5434              -22.31          10.39          19.93          63.96         -13.37          1.595         -83.74          83.78         -60.98          136.0          90.54
    0.5636              -22.35          10.37          19.91          63.97         -13.35          1.599         -83.41          83.68         -61.07          136.0           90.5
    0.5837               -22.4          10.35          19.89          63.97         -13.32          1.603         -83.03          83.57         -61.18          135.9          90.46
    0.6038              -22.46          10.33          19.87          63.98         -13.29          1.607         -82.59          83.44          -61.3          135.8          90.41
     0.624              -22.53           10.3          19.85          63.99         -13.25          1.612          -82.1          83.29         -61.44          135.7          90.35
    0.6441              -22.61          10.26          19.82           64.0         -13.21          1.618         -81.52          83.12          -61.6          135.6          90.28
    0.6642               -22.7          10.22          19.79          64.02         -13.16          1.624         -80.85          82.93         -61.79          135.5           90.2
    0.6843              -22.81          10.18          19.76          64.03          -13.1          1.632         -80.07           82.7          -62.0          135.3          90.11
    0.7045              -22.94          10.12          19.72          64.05         -13.03          1.641         -79.15          82.42         -62.26          135.2           90.0
    0.7246              -23.09          10.06          19.67          64.07         -12.95          1.652         -78.05           82.1         -62.57          134.9          89.88
    0.7447              -23.26          9.984          19.61           64.1         -12.85          1.665         -76.74          81.71         -62.93          134.7          89.72
    0.7648              -23.48          9.891          19.53          64.13         -12.74          1.681         -75.15          81.25         -63.38          134.4          89.54
     0.785              -23.75          9.778          19.45          64.17         -12.59            1.7         -73.21          80.68         -63.92          134.0          89.31
    0.8051              -24.08          9.639          19.34          64.22         -12.42          1.724         -70.81          79.97         -64.58          133.6          89.03
    0.8252              -24.48          9.465           19.2          64.28          -12.2          1.754         -67.82          79.09         -65.42          133.0          88.68
    0.8454               -25.0          9.245          19.03          64.35         -11.92          1.791         -64.06          77.98         -66.47          132.3          88.24
    0.8655              -25.65          8.967          18.81          64.45         -11.57          1.839         -59.27          76.57          -67.8          131.4          87.69
    0.8856              -26.49           8.61          18.53          64.57         -11.12            1.9         -53.15          74.77         -69.51          130.3          86.97
    0.9057              -27.57          8.152          18.18          64.72         -10.54          1.978         -45.29          72.46          -71.7          128.8          86.05
    0.9259              -28.94          7.567          17.72          64.92         -9.803          2.078         -35.25           69.5         -74.49          126.9          84.88
     0.946              -30.66          6.832          17.15          65.17         -8.874          2.203         -22.62          65.79         -78.01          124.5          83.41
    0.9661              -32.77          5.936          16.45          65.48         -7.743          2.357         -7.239          61.26          -82.3          121.6          81.62
    0.9862              -35.21          4.898          15.64          65.83         -6.431          2.534          10.59          56.01         -87.27          118.2          79.54
     1.006              -37.85          3.773          14.76          66.22         -5.011          2.726           29.9          50.33         -92.65          114.6          77.29
     1.027              -40.49          2.648          13.88           66.6          -3.59          2.918          49.21          44.65         -98.03          111.0          75.03
     1.047              -42.93           1.61          13.07          66.96         -2.279          3.095          67.04           39.4         -103.0          107.6          72.95
     1.067              -45.03         0.7137          12.37          67.26         -1.147          3.249          82.43          34.87         -107.3          104.7          71.16
     1.087              -46.76       -0.02158           11.8          67.51        -0.2186          3.374          95.05          31.16         -110.8          102.3          69.69
     1.107              -48.13        -0.6064          11.34          67.71         0.5199          3.474          105.1           28.2         -113.6          100.4          68.52
     1.127               -49.2         -1.064          10.98          67.87          1.098          3.552          113.0          25.89         -115.8          98.94           67.6
     1.147              -50.04         -1.421          10.71          67.99          1.549          3.613          119.1          24.09         -117.5          97.78          66.89
     1.167               -50.7           -1.7          10.49          68.09          1.901          3.661          123.9          22.68         -118.8          96.88          66.33
     1.188              -51.21         -1.919          10.32          68.16          2.178          3.698          127.6          21.57         -119.9          96.17          65.89
     1.208              -51.62         -2.093          10.18          68.22          2.397          3.728          130.6          20.69         -120.7          95.61          65.54
     1.228              -51.95         -2.232          10.07          68.27          2.574          3.752          133.0          19.98         -121.4          95.16          65.26
     1.248              -52.21         -2.346          9.985          68.31          2.716          3.771          135.0          19.41         -121.9          94.79          65.03
     1.268              -52.43         -2.438          9.912          68.34          2.833          3.787          136.5          18.94         -122.4          94.49          64.85
     1.288              -52.61         -2.515          9.853          68.36           2.93            3.8          137.9          18.56         -122.7          94.24          64.69
